<svg width="10" height="10" fill="#ffffff" viewBox="0 0 10 10" xmlns="http://www.w3.org/2000/svg">
  <path d="M4.1886 10C4.0424 10 3.9693 9.9269 3.9693 9.7807V6.0307H0.219298C0.0730995 6.0307 0 5.9576 0 5.8114V4.1886C0 4.0424 0.0730995 3.9693 0.219298 3.9693H3.9693V0.219298C3.9693 0.0730997 4.0424 0 4.1886 0H5.8114C5.9576 0 6.0307 0.0730997 6.0307 0.219298V3.9693H9.7807C9.9269 3.9693 10 4.0424 10 4.1886V5.8114C10 5.9576 9.9269 6.0307 9.7807 6.0307H6.0307V9.7807C6.0307 9.9269 5.9576 10 5.8114 10H4.1886Z"/>
</svg>